<?xml version="1.0" encoding="UTF-8"?>
<svg xmlns="http://www.w3.org/2000/svg" xmlns:xlink="http://www.w3.org/1999/xlink" width="560px"
    height="164px" viewBox="0 0 560 164" version="1.1">
    <g id="surface1">
        <path style=" stroke:none;fill-rule:nonzero;fill:rgb(0%,0%,0%);fill-opacity:1;"
            d="M 155.28125 0.246094 C 148.417969 1.144531 142.371094 2.863281 136.527344 5.566406 C 119.199219 13.667969 106.980469 30.074219 103.917969 49.304688 C 103.140625 54.296875 103.386719 64.894531 104.40625 69.5625 C 107.511719 83.757812 115.605469 96.28125 127.085938 104.75 C 131.335938 107.859375 139.960938 112.117188 144.820312 113.507812 C 158.675781 117.476562 173.386719 116.25 186.136719 110.070312 C 192.101562 107.164062 196.148438 104.339844 201.050781 99.554688 C 209.917969 91.003906 215.269531 81.304688 217.886719 68.988281 C 219.113281 63.097656 219.113281 52.703125 217.847656 46.769531 C 215.394531 35.027344 210.328125 25.65625 201.867188 17.1875 C 193.449219 8.714844 184.335938 3.722656 172.730469 1.1875 C 169.054688 0.410156 158.59375 -0.164062 155.28125 0.246094 Z M 166.519531 12.316406 C 170.445312 12.808594 175.796875 14.199219 179.105469 15.628906 L 181.109375 16.488281 L 171.34375 26.269531 C 165.988281 31.628906 161.453125 36.007812 161.207031 36.007812 C 160.964844 36.007812 156.386719 31.589844 150.992188 26.1875 C 141.714844 16.859375 141.265625 16.40625 142.246094 16.039062 C 142.777344 15.792969 144.167969 15.261719 145.269531 14.8125 C 151.523438 12.355469 159.410156 11.457031 166.519531 12.316406 Z M 144.863281 31.507812 L 155.488281 42.144531 L 154.34375 43.25 L 153.238281 44.394531 L 142.617188 33.757812 C 136.773438 27.90625 131.992188 22.957031 131.992188 22.792969 C 131.992188 22.421875 133.625 20.910156 134.035156 20.867188 C 134.15625 20.867188 139.019531 25.65625 144.863281 31.507812 Z M 190.015625 22.300781 C 190.507812 22.875 189.324219 24.222656 179.882812 33.675781 L 169.175781 44.394531 L 168.074219 43.25 L 166.929688 42.144531 L 177.511719 31.546875 C 188.585938 20.460938 188.503906 20.5 190.015625 22.300781 Z M 136.773438 39.363281 L 147.476562 50.082031 L 146.621094 51.023438 C 146.128906 51.558594 145.558594 51.964844 145.3125 51.964844 C 144.820312 51.964844 124.226562 31.464844 124.226562 30.976562 C 124.226562 30.523438 125.492188 28.644531 125.820312 28.644531 C 125.941406 28.644531 130.886719 33.472656 136.773438 39.363281 Z M 197.414062 29.910156 L 198.3125 31.179688 L 187.730469 41.777344 L 177.1875 52.335938 L 176.246094 51.476562 C 175.714844 50.984375 175.304688 50.410156 175.304688 50.164062 C 175.304688 49.839844 196.105469 28.644531 196.433594 28.644531 C 196.472656 28.644531 196.921875 29.214844 197.414062 29.910156 Z M 129.742188 48.285156 L 139.550781 58.105469 L 129.660156 68.007812 L 119.773438 77.90625 L 118.75 75.574219 C 115.277344 67.761719 114.335938 56.261719 116.421875 47.667969 C 117.320312 44.027344 119.28125 38.464844 119.691406 38.464844 C 119.8125 38.464844 124.347656 42.882812 129.742188 48.285156 Z M 203.871094 41.285156 C 207.957031 52.539062 207.957031 63.914062 203.871094 74.511719 L 202.605469 77.867188 L 192.714844 67.964844 L 182.867188 58.105469 L 192.46875 48.488281 C 197.742188 43.210938 202.277344 38.871094 202.523438 38.871094 C 202.765625 38.871094 203.378906 39.9375 203.871094 41.285156 Z M 162.351562 51.230469 L 161.25 52.375 L 158.960938 50.164062 L 160.0625 49.019531 L 161.167969 47.875 L 162.3125 48.980469 L 163.457031 50.082031 Z M 154.464844 57.082031 L 155.445312 58.144531 L 154.34375 59.25 L 153.238281 60.355469 L 151.035156 58.144531 L 152.015625 57.082031 C 152.546875 56.507812 153.078125 56.058594 153.238281 56.058594 C 153.402344 56.058594 153.933594 56.507812 154.464844 57.082031 Z M 170.402344 57.082031 L 171.382812 58.144531 L 170.28125 59.25 L 169.175781 60.355469 L 168.074219 59.25 L 166.96875 58.144531 L 167.949219 57.082031 C 168.480469 56.507812 169.011719 56.058594 169.175781 56.058594 C 169.339844 56.058594 169.871094 56.507812 170.402344 57.082031 Z M 147.109375 66.042969 C 147.109375 66.289062 142.371094 71.238281 136.566406 77.050781 C 126.679688 86.910156 125.984375 87.566406 125.371094 86.871094 C 125.042969 86.460938 124.636719 85.886719 124.429688 85.558594 C 124.226562 85.191406 127.25 81.878906 134.6875 74.429688 L 145.230469 63.875 L 146.171875 64.734375 C 146.703125 65.222656 147.109375 65.796875 147.109375 66.042969 Z M 162.351562 67.1875 L 161.25 68.332031 L 160.105469 67.230469 L 158.960938 66.125 L 160.0625 64.976562 L 161.167969 63.832031 L 163.457031 66.042969 Z M 187.972656 74.675781 L 198.394531 85.109375 L 197.25 86.214844 L 196.148438 87.359375 L 185.726562 76.925781 C 180.003906 71.199219 175.304688 66.328125 175.304688 66.125 C 175.304688 65.550781 176.574219 64.242188 177.105469 64.242188 C 177.351562 64.242188 182.253906 68.945312 187.972656 74.675781 Z M 154.464844 73.039062 L 155.445312 74.101562 L 144.863281 84.699219 L 134.238281 95.296875 L 133.011719 94.316406 L 131.785156 93.292969 L 142.410156 82.65625 C 148.253906 76.804688 153.117188 72.015625 153.28125 72.015625 C 153.402344 72.015625 153.933594 72.464844 154.464844 73.039062 Z M 179.882812 82.53125 L 190.386719 93.046875 L 189.527344 93.988281 C 189.035156 94.519531 188.464844 94.929688 188.21875 94.929688 C 187.972656 94.929688 183.070312 90.222656 177.351562 84.496094 L 166.96875 74.101562 L 167.949219 73.039062 C 168.480469 72.464844 169.011719 72.015625 169.136719 72.015625 C 169.257812 72.015625 174.121094 76.761719 179.882812 82.53125 Z M 171.21875 89.816406 C 176.492188 95.09375 180.699219 99.472656 180.617188 99.554688 C 179.964844 100.125 174.242188 102.089844 171.097656 102.785156 C 166.03125 103.972656 157.039062 104.054688 152.015625 102.949219 C 148.335938 102.171875 141.796875 99.964844 141.796875 99.511719 C 141.796875 99.0625 160.757812 80.199219 161.207031 80.199219 C 161.453125 80.199219 165.949219 84.535156 171.21875 89.816406 Z M 171.21875 89.816406 " />
        <path style=" stroke:none;fill-rule:nonzero;fill:rgb(0%,0%,0%);fill-opacity:1;"
            d="M 0 58.308594 L 0 112.933594 L 18.796875 112.933594 L 18.796875 76.027344 C 18.796875 40.140625 18.839844 39.117188 19.53125 39.894531 C 19.984375 40.34375 31.875 56.550781 45.972656 75.902344 C 60.070312 95.257812 72.003906 111.503906 72.453125 112.035156 C 73.269531 112.894531 73.554688 112.933594 80.582031 112.933594 L 87.859375 112.933594 L 87.777344 58.390625 L 87.652344 3.886719 L 78.378906 3.765625 L 69.058594 3.683594 L 69.058594 40.550781 C 69.058594 62.277344 68.898438 77.335938 68.691406 77.253906 C 68.488281 77.171875 56.230469 60.601562 41.476562 40.386719 L 14.628906 3.683594 L 0 3.683594 Z M 0 58.308594 " />
        <path style=" stroke:none;fill-rule:nonzero;fill:rgb(0%,0%,0%);fill-opacity:1;"
            d="M 233.332031 59.125 L 233.332031 113.753906 L 251.3125 113.753906 L 251.394531 74.921875 L 251.519531 36.089844 L 268.027344 63.503906 C 283.472656 89.160156 284.578125 90.878906 285.558594 90.757812 C 286.496094 90.632812 288.703125 87.15625 303.167969 63.21875 L 319.761719 35.804688 L 319.882812 74.757812 L 319.964844 113.753906 L 337.535156 113.753906 L 337.535156 4.5 L 318.492188 4.5 L 302.394531 31.140625 C 293.566406 45.746094 286.089844 58.023438 285.84375 58.347656 C 285.476562 58.839844 282.246094 53.726562 269.089844 31.835938 L 252.742188 4.707031 L 243.019531 4.582031 L 233.332031 4.5 Z M 233.332031 59.125 " />
        <path style=" stroke:none;fill-rule:nonzero;fill:rgb(0%,0%,0%);fill-opacity:1;"
            d="M 370.882812 58.59375 C 360.09375 88.382812 351.226562 112.976562 351.101562 113.261719 C 350.980469 113.671875 352.941406 113.753906 360.664062 113.671875 L 370.433594 113.546875 L 373.167969 105.570312 C 374.722656 101.191406 376.4375 96.238281 377.011719 94.601562 L 378.074219 91.65625 L 424.496094 91.65625 L 426.457031 97.261719 C 427.519531 100.371094 429.234375 105.28125 430.257812 108.230469 L 432.136719 113.546875 L 441.65625 113.671875 C 449.09375 113.753906 451.136719 113.671875 451.136719 113.261719 C 451.136719 112.976562 442.351562 88.425781 431.605469 58.71875 L 412.113281 4.707031 L 401.285156 4.582031 L 390.457031 4.5 Z M 410.027344 50.410156 C 414.648438 63.628906 418.445312 74.511719 418.445312 74.632812 C 418.445312 74.796875 410.722656 74.878906 401.242188 74.878906 C 386.328125 74.878906 384.082031 74.796875 384.203125 74.265625 C 384.652344 72.140625 401.121094 25.902344 401.367188 26.105469 C 401.488281 26.269531 405.410156 37.195312 410.027344 50.410156 Z M 410.027344 50.410156 " />
        <path style=" stroke:none;fill-rule:nonzero;fill:rgb(0%,0%,0%);fill-opacity:1;"
            d="M 464.625 59.125 L 464.625 113.792969 L 489.878906 113.628906 C 513.539062 113.464844 515.335938 113.425781 518.769531 112.648438 C 531.027344 109.824219 540.507812 103.808594 548.191406 93.90625 C 551.5 89.609375 553.378906 86.460938 555.300781 82 C 560.734375 69.398438 561.265625 52.089844 556.566406 39.242188 C 551.132812 24.304688 538.875 11.824219 525.019531 7.203125 C 517.707031 4.746094 518.480469 4.789062 490.492188 4.625 L 464.625 4.460938 Z M 517.746094 22.875 C 521.585938 24.019531 526.246094 26.472656 529.269531 28.886719 C 532.417969 31.382812 536.585938 36.664062 538.585938 40.714844 C 543.816406 51.269531 543.777344 66.941406 538.546875 77.457031 C 534.5 85.558594 527.226562 92.066406 519.382812 94.683594 C 514.558594 96.28125 510.882812 96.566406 496.253906 96.566406 L 482.605469 96.566406 L 482.605469 21.644531 L 498.664062 21.769531 C 513.863281 21.933594 514.84375 21.972656 517.746094 22.875 Z M 517.746094 22.875 " />
        <path style=" stroke:none;fill-rule:nonzero;fill:rgb(0%,0%,0%);fill-opacity:1;"
            d="M 429.480469 140.226562 C 425.558594 141.742188 424.167969 143.5 424.167969 146.8125 C 424.167969 148.859375 424.289062 149.1875 425.722656 150.578125 C 426.824219 151.683594 427.96875 152.339844 429.683594 152.828125 C 434.832031 154.21875 436.183594 154.835938 436.753906 155.980469 C 437.9375 158.476562 435.203125 160.726562 431.644531 160.234375 C 429.441406 159.949219 428.417969 159.292969 427.804688 157.863281 C 427.394531 156.839844 427.152344 156.714844 425.351562 156.714844 C 423.105469 156.714844 422.941406 157.003906 423.921875 159.292969 C 424.660156 161.09375 427.109375 163.140625 428.949219 163.550781 C 431.644531 164.121094 435.28125 163.878906 437.285156 162.976562 C 442.027344 160.847656 442.679688 154.753906 438.46875 151.96875 C 437.652344 151.398438 435.363281 150.539062 433.445312 150.007812 C 431.484375 149.515625 429.519531 148.738281 429.070312 148.328125 C 427.886719 147.265625 428.132812 145.382812 429.5625 144.320312 C 431.6875 142.722656 436.183594 143.582031 436.714844 145.710938 C 436.875 146.324219 437.328125 146.488281 438.960938 146.488281 L 441.046875 146.488281 L 440.757812 145.257812 C 440.472656 143.664062 439.453125 142.3125 437.695312 141.125 C 436.550781 140.347656 435.691406 140.144531 433.199219 140.0625 C 431.484375 140.023438 429.808594 140.0625 429.480469 140.226562 Z M 429.480469 140.226562 " />
        <path style=" stroke:none;fill-rule:nonzero;fill:rgb(0%,0%,0%);fill-opacity:1;"
            d="M 121.773438 152.011719 L 121.773438 163.671875 L 125.859375 163.671875 L 125.859375 155.488281 L 129.539062 155.488281 C 133.746094 155.488281 135.789062 154.753906 137.261719 152.664062 C 139.140625 150.046875 139.058594 145.546875 137.097656 142.96875 C 135.382812 140.71875 133.992188 140.347656 127.535156 140.347656 L 121.773438 140.347656 Z M 132.359375 144.195312 C 133.585938 144.851562 134.441406 146.363281 134.441406 147.917969 C 134.441406 150.824219 132.523438 152.214844 128.515625 152.214844 L 125.859375 152.214844 L 125.859375 143.621094 L 128.515625 143.621094 C 130.070312 143.621094 131.703125 143.867188 132.359375 144.195312 Z M 132.359375 144.195312 " />
        <path style=" stroke:none;fill-rule:nonzero;fill:rgb(0%,0%,0%);fill-opacity:1;"
            d="M 167.09375 141.453125 C 166.398438 143.214844 159.371094 163.34375 159.371094 163.507812 C 159.371094 163.589844 160.351562 163.671875 161.578125 163.671875 L 163.824219 163.671875 L 164.722656 160.808594 L 165.664062 157.945312 L 174.734375 157.945312 L 175.675781 160.808594 L 176.574219 163.671875 L 178.863281 163.671875 C 180.824219 163.671875 181.066406 163.589844 180.824219 162.9375 C 180.660156 162.566406 178.945312 157.617188 176.941406 152.011719 C 174.9375 146.363281 173.222656 141.453125 173.058594 141.042969 C 172.8125 140.472656 172.242188 140.347656 170.15625 140.347656 C 167.664062 140.347656 167.5 140.390625 167.09375 141.453125 Z M 173.101562 153.523438 C 173.304688 154.179688 173.019531 154.261719 170.238281 154.261719 C 168.523438 154.261719 167.132812 154.140625 167.132812 153.976562 C 167.132812 153.769531 167.789062 151.644531 168.644531 149.148438 L 170.117188 144.644531 L 171.507812 148.738281 C 172.242188 150.945312 172.9375 153.117188 173.101562 153.523438 Z M 173.101562 153.523438 " />
        <path style=" stroke:none;fill-rule:nonzero;fill:rgb(0%,0%,0%);fill-opacity:1;"
            d="M 201.460938 140.511719 C 201.460938 140.636719 203.296875 143.867188 205.546875 147.753906 L 209.632812 154.792969 L 209.632812 163.671875 L 213.71875 163.671875 L 213.71875 155.039062 L 217.96875 147.671875 L 222.257812 140.347656 L 217.476562 140.347656 L 214.660156 145.464844 C 213.148438 148.246094 211.714844 150.375 211.554688 150.210938 C 211.347656 150.007812 210.039062 147.753906 208.652344 145.21875 L 206.117188 140.554688 L 203.789062 140.429688 C 202.523438 140.347656 201.460938 140.390625 201.460938 140.511719 Z M 201.460938 140.511719 " />
        <path style=" stroke:none;fill-rule:nonzero;fill:rgb(0%,0%,0%);fill-opacity:1;"
            d="M 246.410156 152.011719 L 246.410156 163.671875 L 250.496094 163.671875 L 250.578125 155.613281 L 250.699219 147.511719 L 253.722656 155.078125 C 255.398438 159.253906 256.910156 162.894531 257.15625 163.140625 C 257.363281 163.425781 258.054688 163.671875 258.667969 163.671875 C 259.28125 163.671875 259.976562 163.425781 260.179688 163.140625 C 260.425781 162.894531 261.9375 159.253906 263.613281 155.078125 L 266.636719 147.511719 L 266.761719 155.613281 L 266.84375 163.671875 L 270.929688 163.671875 L 270.929688 140.347656 L 265.699219 140.347656 L 264.308594 143.703125 C 263.53125 145.585938 261.980469 149.351562 260.875 152.09375 C 259.773438 154.875 258.792969 157.125 258.667969 157.125 C 258.546875 157.125 256.910156 153.359375 255.03125 148.738281 L 251.640625 140.347656 L 246.410156 140.347656 Z M 246.410156 152.011719 " />
        <path style=" stroke:none;fill-rule:nonzero;fill:rgb(0%,0%,0%);fill-opacity:1;"
            d="M 296.671875 152.011719 L 296.671875 163.671875 L 311.792969 163.671875 L 311.792969 159.988281 L 300.757812 159.988281 L 300.757812 153.441406 L 310.976562 153.441406 L 310.976562 150.167969 L 300.757812 150.167969 L 300.757812 143.621094 L 311.792969 143.621094 L 311.792969 140.347656 L 296.671875 140.347656 Z M 296.671875 152.011719 " />
        <path style=" stroke:none;fill-rule:nonzero;fill:rgb(0%,0%,0%);fill-opacity:1;"
            d="M 337.128906 152.011719 L 337.128906 163.671875 L 341.214844 163.671875 L 341.214844 155.613281 C 341.214844 149.679688 341.335938 147.671875 341.664062 148 C 341.910156 148.246094 344.441406 151.847656 347.304688 155.980469 L 352.492188 163.46875 L 354.414062 163.589844 L 356.332031 163.714844 L 356.332031 140.347656 L 352.246094 140.347656 L 352.246094 148.125 C 352.246094 152.378906 352.125 155.898438 351.960938 155.898438 C 351.757812 155.898438 349.265625 152.378906 346.320312 148.125 L 341.011719 140.347656 L 337.128906 140.347656 Z M 337.128906 152.011719 " />
        <path style=" stroke:none;fill-rule:nonzero;fill:rgb(0%,0%,0%);fill-opacity:1;"
            d="M 380.851562 141.984375 L 380.851562 143.621094 L 388.207031 143.621094 L 388.207031 163.671875 L 392.292969 163.671875 L 392.292969 143.621094 L 399.648438 143.621094 L 399.648438 140.347656 L 380.851562 140.347656 Z M 380.851562 141.984375 " />
    </g>
</svg>